<?xml version="1.0" standalone="no"?>
<svg xmlns:xlink="http://www.w3.org/1999/xlink" id="wave" style="transform:rotate(180deg); transition: 0.3s" viewBox="0 0 1440 170" version="1.1" xmlns="http://www.w3.org/2000/svg"><defs><linearGradient id="sw-gradient-0" x1="0" x2="0" y1="1" y2="0"><stop stop-color="rgba(252, 211, 77, 1)" offset="0%"/><stop stop-color="rgba(252, 211, 77, 1)" offset="100%"/></linearGradient></defs><path style="transform:translate(0, 0px); opacity:1" fill="url(#sw-gradient-0)" d="M0,0L11.4,5.7C22.9,11,46,23,69,48.2C91.4,74,114,113,137,116.2C160,119,183,85,206,59.5C228.6,34,251,17,274,8.5C297.1,0,320,0,343,14.2C365.7,28,389,57,411,79.3C434.3,102,457,119,480,127.5C502.9,136,526,136,549,136C571.4,136,594,136,617,124.7C640,113,663,91,686,68C708.6,45,731,23,754,17C777.1,11,800,23,823,28.3C845.7,34,869,34,891,48.2C914.3,62,937,91,960,99.2C982.9,108,1006,96,1029,99.2C1051.4,102,1074,119,1097,127.5C1120,136,1143,136,1166,119C1188.6,102,1211,68,1234,53.8C1257.1,40,1280,45,1303,42.5C1325.7,40,1349,28,1371,25.5C1394.3,23,1417,28,1440,36.8C1462.9,45,1486,57,1509,68C1531.4,79,1554,91,1577,104.8C1600,119,1623,136,1634,144.5L1645.7,153L1645.7,170L1634.3,170C1622.9,170,1600,170,1577,170C1554.3,170,1531,170,1509,170C1485.7,170,1463,170,1440,170C1417.1,170,1394,170,1371,170C1348.6,170,1326,170,1303,170C1280,170,1257,170,1234,170C1211.4,170,1189,170,1166,170C1142.9,170,1120,170,1097,170C1074.3,170,1051,170,1029,170C1005.7,170,983,170,960,170C937.1,170,914,170,891,170C868.6,170,846,170,823,170C800,170,777,170,754,170C731.4,170,709,170,686,170C662.9,170,640,170,617,170C594.3,170,571,170,549,170C525.7,170,503,170,480,170C457.1,170,434,170,411,170C388.6,170,366,170,343,170C320,170,297,170,274,170C251.4,170,229,170,206,170C182.9,170,160,170,137,170C114.3,170,91,170,69,170C45.7,170,23,170,11,170L0,170Z"/></svg>